<svg xmlns="http://www.w3.org/2000/svg" viewBox="0 0 120 120" role="img" aria-label="국화꽃">
  <rect width="120" height="120" fill="none"/>
  <g fill="#050505" stroke="#ffffff" stroke-width="3.4" stroke-linejoin="round">
    <ellipse cx="60" cy="17" rx="8.2" ry="21" transform="rotate(0 60 17)"/>
    <ellipse cx="81.5" cy="23" rx="8.2" ry="21" transform="rotate(30 81.5 23)"/>
    <ellipse cx="97" cy="39" rx="8.2" ry="21" transform="rotate(60 97 39)"/>
    <ellipse cx="103" cy="60" rx="8.2" ry="21" transform="rotate(90 103 60)"/>
    <ellipse cx="97" cy="81" rx="8.2" ry="21" transform="rotate(120 97 81)"/>
    <ellipse cx="81.5" cy="97" rx="8.2" ry="21" transform="rotate(150 81.5 97)"/>
    <ellipse cx="60" cy="103" rx="8.2" ry="21" transform="rotate(180 60 103)"/>
    <ellipse cx="38.5" cy="97" rx="8.2" ry="21" transform="rotate(210 38.5 97)"/>
    <ellipse cx="23" cy="81" rx="8.2" ry="21" transform="rotate(240 23 81)"/>
    <ellipse cx="17" cy="60" rx="8.2" ry="21" transform="rotate(270 17 60)"/>
    <ellipse cx="23" cy="39" rx="8.2" ry="21" transform="rotate(300 23 39)"/>
    <ellipse cx="38.5" cy="23" rx="8.2" ry="21" transform="rotate(330 38.5 23)"/>
  </g>
  <g fill="#050505" stroke="#ffffff" stroke-width="3.2" stroke-linejoin="round">
    <ellipse cx="60" cy="31" rx="7.2" ry="16" transform="rotate(0 60 31)"/>
    <ellipse cx="75" cy="35" rx="7.2" ry="16" transform="rotate(35 75 35)"/>
    <ellipse cx="86" cy="47" rx="7.2" ry="16" transform="rotate(70 86 47)"/>
    <ellipse cx="88" cy="63" rx="7.2" ry="16" transform="rotate(105 88 63)"/>
    <ellipse cx="80" cy="77" rx="7.2" ry="16" transform="rotate(140 80 77)"/>
    <ellipse cx="67" cy="86" rx="7.2" ry="16" transform="rotate(175 67 86)"/>
    <ellipse cx="52" cy="86" rx="7.2" ry="16" transform="rotate(205 52 86)"/>
    <ellipse cx="39" cy="77" rx="7.2" ry="16" transform="rotate(235 39 77)"/>
    <ellipse cx="31" cy="63" rx="7.2" ry="16" transform="rotate(265 31 63)"/>
    <ellipse cx="34" cy="47" rx="7.2" ry="16" transform="rotate(290 34 47)"/>
    <ellipse cx="45" cy="35" rx="7.2" ry="16" transform="rotate(325 45 35)"/>
  </g>
  <g fill="#050505" stroke="#ffffff" stroke-width="3" stroke-linejoin="round">
    <ellipse cx="60" cy="45" rx="6.2" ry="12" transform="rotate(0 60 45)"/>
    <ellipse cx="72" cy="50" rx="6.2" ry="12" transform="rotate(50 72 50)"/>
    <ellipse cx="74" cy="64" rx="6.2" ry="12" transform="rotate(100 74 64)"/>
    <ellipse cx="66" cy="73" rx="6.2" ry="12" transform="rotate(150 66 73)"/>
    <ellipse cx="53" cy="73" rx="6.2" ry="12" transform="rotate(210 53 73)"/>
    <ellipse cx="45" cy="64" rx="6.2" ry="12" transform="rotate(260 45 64)"/>
    <ellipse cx="48" cy="50" rx="6.2" ry="12" transform="rotate(310 48 50)"/>
  </g>
  <circle cx="60" cy="60" r="10" fill="#050505" stroke="#ffffff" stroke-width="3"/>
</svg>
